<svg viewBox="0 0 96 116" xmlns="http://www.w3.org/2000/svg" role="img" aria-label="Nexus Institute of Technology shield">
  <!-- v5 "Academic Shield" — flat, simple, elegant. Navy field, amber keyline,
       open book (institute), minimal gear (mechanical engineering). -->
  <path d="M48 4 L90 18 V56 C90 84 73 102 48 112 C23 102 6 84 6 56 V18 Z" fill="#0E1626"/>
  <path d="M48 11 L83.5 22.8 V56 C83.5 79.5 69 95.5 48 104.4 C27 95.5 12.5 79.5 12.5 56 V22.8 Z"
        fill="none" stroke="#F5A623" stroke-width="2.4"/>
  <g stroke="#14CFA0" stroke-width="5" stroke-linecap="round" fill="none">
    <circle cx="48" cy="44" r="13"/>
    <line x1="61" y1="44" x2="66.5" y2="44"/>
    <line x1="57.19" y1="53.19" x2="61.08" y2="57.08"/>
    <line x1="48" y1="57" x2="48" y2="62.5"/>
    <line x1="38.81" y1="53.19" x2="34.92" y2="57.08"/>
    <line x1="35" y1="44" x2="29.5" y2="44"/>
    <line x1="38.81" y1="34.81" x2="34.92" y2="30.92"/>
    <line x1="48" y1="31" x2="48" y2="25.5"/>
    <line x1="57.19" y1="34.81" x2="61.08" y2="30.92"/>
  </g>
  <circle cx="48" cy="44" r="4.5" fill="#F5A623"/>
  <path d="M24 72 C 33 66.5 43 66.5 48 71 C 53 66.5 63 66.5 72 72 L72 85
           C 63 79.5 53 79.5 48 84 C 43 79.5 33 79.5 24 85 Z" fill="#F7F4EC"/>
  <line x1="48" y1="71" x2="48" y2="84" stroke="#0E1626" stroke-width="2"/>
</svg>
