<svg viewBox="0 0 240 240" xmlns="http://www.w3.org/2000/svg" class="nx-logo" role="img" aria-label="Nexus Institute of Technology planetary-gear logo"><defs>
<linearGradient id="metal" x1="0%" y1="0%" x2="100%" y2="100%">
  <stop offset="0%" stop-color="#FDFEFE"/><stop offset="38%" stop-color="#D3D9DF"/>
  <stop offset="58%" stop-color="#9AA3AE"/><stop offset="78%" stop-color="#E3E7EB"/>
  <stop offset="100%" stop-color="#CBD1D8"/>
</linearGradient>
<linearGradient id="metal2" x1="100%" y1="0%" x2="0%" y2="100%">
  <stop offset="0%" stop-color="#F2F5F7"/><stop offset="50%" stop-color="#A7B0BA"/>
  <stop offset="100%" stop-color="#EDF0F3"/>
</linearGradient>
<linearGradient id="tealg" x1="0%" y1="0%" x2="0%" y2="100%">
  <stop offset="0%" stop-color="#4FF2DA"/><stop offset="100%" stop-color="#0FB8A3"/>
</linearGradient>
<filter id="glow" x="-60%" y="-60%" width="220%" height="220%">
  <feGaussianBlur stdDeviation="3.2" result="b"/>
  <feMerge><feMergeNode in="b"/><feMergeNode in="SourceGraphic"/></feMerge>
</filter>
<filter id="soft" x="-80%" y="-80%" width="260%" height="260%">
  <feGaussianBlur stdDeviation="7"/>
</filter>
</defs><path d="M220.96 117.17 L230.96 116.89 L230.96 123.11 L220.96 122.83 L220.64 128.49 L230.61 129.33 L229.91 135.52 L220.01 134.12 L219.06 139.70 L228.87 141.66 L227.48 147.73 L217.80 145.23 L216.23 150.67 L225.76 153.71 L223.70 159.58 L214.36 156.02 L212.19 161.25 L221.32 165.34 L218.62 170.95 L209.73 166.36 L206.99 171.32 L215.61 176.40 L212.29 181.67 L203.98 176.11 L200.70 180.73 L208.69 186.75 L204.81 191.61 L197.17 185.16 L193.39 189.39 L200.66 196.26 L196.26 200.66 L189.39 193.39 L185.16 197.17 L191.61 204.81 L186.75 208.69 L180.73 200.70 L176.11 203.98 L181.67 212.29 L176.40 215.61 L171.32 206.99 L166.36 209.73 L170.95 218.62 L165.34 221.32 L161.25 212.19 L156.02 214.36 L159.58 223.70 L153.71 225.76 L150.67 216.23 L145.23 217.80 L147.73 227.48 L141.66 228.87 L139.70 219.06 L134.12 220.01 L135.52 229.91 L129.33 230.61 L128.49 220.64 L122.83 220.96 L123.11 230.96 L116.89 230.96 L117.17 220.96 L111.51 220.64 L110.67 230.61 L104.48 229.91 L105.88 220.01 L100.30 219.06 L98.34 228.87 L92.27 227.48 L94.77 217.80 L89.33 216.23 L86.29 225.76 L80.42 223.70 L83.98 214.36 L78.75 212.19 L74.66 221.32 L69.05 218.62 L73.64 209.73 L68.68 206.99 L63.60 215.61 L58.33 212.29 L63.89 203.98 L59.27 200.70 L53.25 208.69 L48.39 204.81 L54.84 197.17 L50.61 193.39 L43.74 200.66 L39.34 196.26 L46.61 189.39 L42.83 185.16 L35.19 191.61 L31.31 186.75 L39.30 180.73 L36.02 176.11 L27.71 181.67 L24.39 176.40 L33.01 171.32 L30.27 166.36 L21.38 170.95 L18.68 165.34 L27.81 161.25 L25.64 156.02 L16.30 159.58 L14.24 153.71 L23.77 150.67 L22.20 145.23 L12.52 147.73 L11.13 141.66 L20.94 139.70 L19.99 134.12 L10.09 135.52 L9.39 129.33 L19.36 128.49 L19.04 122.83 L9.04 123.11 L9.04 116.89 L19.04 117.17 L19.36 111.51 L9.39 110.67 L10.09 104.48 L19.99 105.88 L20.94 100.30 L11.13 98.34 L12.52 92.27 L22.20 94.77 L23.77 89.33 L14.24 86.29 L16.30 80.42 L25.64 83.98 L27.81 78.75 L18.68 74.66 L21.38 69.05 L30.27 73.64 L33.01 68.68 L24.39 63.60 L27.71 58.33 L36.02 63.89 L39.30 59.27 L31.31 53.25 L35.19 48.39 L42.83 54.84 L46.61 50.61 L39.34 43.74 L43.74 39.34 L50.61 46.61 L54.84 42.83 L48.39 35.19 L53.25 31.31 L59.27 39.30 L63.89 36.02 L58.33 27.71 L63.60 24.39 L68.68 33.01 L73.64 30.27 L69.05 21.38 L74.66 18.68 L78.75 27.81 L83.98 25.64 L80.42 16.30 L86.29 14.24 L89.33 23.77 L94.77 22.20 L92.27 12.52 L98.34 11.13 L100.30 20.94 L105.88 19.99 L104.48 10.09 L110.67 9.39 L111.51 19.36 L117.17 19.04 L116.89 9.04 L123.11 9.04 L122.83 19.04 L128.49 19.36 L129.33 9.39 L135.52 10.09 L134.12 19.99 L139.70 20.94 L141.66 11.13 L147.73 12.52 L145.23 22.20 L150.67 23.77 L153.71 14.24 L159.58 16.30 L156.02 25.64 L161.25 27.81 L165.34 18.68 L170.95 21.38 L166.36 30.27 L171.32 33.01 L176.40 24.39 L181.67 27.71 L176.11 36.02 L180.73 39.30 L186.75 31.31 L191.61 35.19 L185.16 42.83 L189.39 46.61 L196.26 39.34 L200.66 43.74 L193.39 50.61 L197.17 54.84 L204.81 48.39 L208.69 53.25 L200.70 59.27 L203.98 63.89 L212.29 58.33 L215.61 63.60 L206.99 68.68 L209.73 73.64 L218.62 69.05 L221.32 74.66 L212.19 78.75 L214.36 83.98 L223.70 80.42 L225.76 86.29 L216.23 89.33 L217.80 94.77 L227.48 92.27 L228.87 98.34 L219.06 100.30 L220.01 105.88 L229.91 104.48 L230.61 110.67 L220.64 111.51 Z M215.00 120.00 A95 95 0 1 0 25.00 120.00 A95 95 0 1 0 215.00 120.00 Z" fill="url(#metal)" fill-rule="evenodd" stroke="#77808B" stroke-width="1.3"/><circle cx="120" cy="120" r="93" fill="none" stroke="#2BE4C8" stroke-width="3.5" filter="url(#soft)" opacity="0.9"/><circle cx="120" cy="120" r="93" fill="none" stroke="#7CF7E4" stroke-width="1.2" opacity="0.9"/><path d="M211 120 A91 91 0 1 1 29 120 A91 91 0 1 1 211 120 Z M206.86 114.99 L195.92 116.42 L195.92 123.58 L206.86 125.01 L206.00 133.16 L195.00 132.28 L193.51 139.29 L203.92 142.96 L201.38 150.75 L190.81 147.61 L187.90 154.15 L197.31 159.90 L193.21 167.00 L183.52 161.73 L179.31 167.52 L187.32 175.10 L181.84 181.20 L173.46 174.02 L168.14 178.81 L174.40 187.90 L167.76 192.72 L161.06 183.95 L154.86 187.53 L159.09 197.72 L151.60 201.06 L146.86 191.09 L140.05 193.31 L142.08 204.15 L134.06 205.86 L131.50 195.13 L124.37 195.87 L124.10 206.90 L115.90 206.90 L115.63 195.87 L108.50 195.13 L105.94 205.86 L97.92 204.15 L99.95 193.31 L93.14 191.09 L88.40 201.06 L80.91 197.72 L85.14 187.53 L78.94 183.95 L72.24 192.72 L65.60 187.90 L71.86 178.81 L66.54 174.02 L58.16 181.20 L52.68 175.10 L60.69 167.52 L56.48 161.73 L46.79 167.00 L42.69 159.90 L52.10 154.15 L49.19 147.61 L38.62 150.75 L36.08 142.96 L46.49 139.29 L45.00 132.28 L34.00 133.16 L33.14 125.01 L44.08 123.58 L44.08 116.42 L33.14 114.99 L34.00 106.84 L45.00 107.72 L46.49 100.71 L36.08 97.04 L38.62 89.25 L49.19 92.39 L52.10 85.85 L42.69 80.10 L46.79 73.00 L56.48 78.27 L60.69 72.48 L52.68 64.90 L58.16 58.80 L66.54 65.98 L71.86 61.19 L65.60 52.10 L72.24 47.28 L78.94 56.05 L85.14 52.47 L80.91 42.28 L88.40 38.94 L93.14 48.91 L99.95 46.69 L97.92 35.85 L105.94 34.14 L108.50 44.87 L115.63 44.13 L115.90 33.10 L124.10 33.10 L124.37 44.13 L131.50 44.87 L134.06 34.14 L142.08 35.85 L140.05 46.69 L146.86 48.91 L151.60 38.94 L159.09 42.28 L154.86 52.47 L161.06 56.05 L167.76 47.28 L174.40 52.10 L168.14 61.19 L173.46 65.98 L181.84 58.80 L187.32 64.90 L179.31 72.48 L183.52 78.27 L193.21 73.00 L197.31 80.10 L187.90 85.85 L190.81 92.39 L201.38 89.25 L203.92 97.04 L193.51 100.71 L195.00 107.72 L206.00 106.84 Z" fill="url(#metal2)" fill-rule="evenodd" stroke="#77808B" stroke-width="1.1"/><circle cx="120" cy="120" r="62" fill="none" stroke="#35E0C6" stroke-width="2" opacity="0.55" filter="url(#glow)"/><circle cx="120" cy="120" r="36" fill="none" stroke="#35E0C6" stroke-width="1.6" opacity="0.45" filter="url(#glow)"/><circle cx="120.0" cy="65.0" r="22" fill="#2BE4C8" opacity="0.75" filter="url(#soft)"/><path d="M134.84 62.85 L143.83 62.18 L143.83 67.82 L134.84 67.15 L133.93 70.56 L142.05 74.47 L139.23 79.36 L131.78 74.29 L129.29 76.78 L134.36 84.23 L129.47 87.05 L125.56 78.93 L122.15 79.84 L122.82 88.83 L117.18 88.83 L117.85 79.84 L114.44 78.93 L110.53 87.05 L105.64 84.23 L110.71 76.78 L108.22 74.29 L100.77 79.36 L97.95 74.47 L106.07 70.56 L105.16 67.15 L96.17 67.82 L96.17 62.18 L105.16 62.85 L106.07 59.44 L97.95 55.53 L100.77 50.64 L108.22 55.71 L110.71 53.22 L105.64 45.77 L110.53 42.95 L114.44 51.07 L117.85 50.16 L117.18 41.17 L122.82 41.17 L122.15 50.16 L125.56 51.07 L129.47 42.95 L134.36 45.77 L129.29 53.22 L131.78 55.71 L139.23 50.64 L142.05 55.53 L133.93 59.44 Z M130.00 65.00 A10 10 0 1 0 110.00 65.00 A10 10 0 1 0 130.00 65.00 Z" fill="url(#metal)" fill-rule="evenodd" stroke="#77808B" stroke-width="1.1"/><circle cx="120.0" cy="65.0" r="10" fill="#FFFFFF" stroke="#C6CDD4" stroke-width="1"/><circle cx="120.0" cy="65.0" r="4.6" fill="none" stroke="#AEB6BF" stroke-width="2.6"/><circle cx="120.0" cy="65.0" r="4.6" fill="none" stroke="#0FB8A3" stroke-width="1" opacity="0.5"/><circle cx="167.6" cy="147.5" r="22" fill="#2BE4C8" opacity="0.75" filter="url(#soft)"/><path d="M182.48 145.35 L191.47 144.68 L191.47 150.32 L182.48 149.65 L181.56 153.06 L189.68 156.97 L186.86 161.86 L179.41 156.79 L176.92 159.28 L181.99 166.73 L177.11 169.55 L173.19 161.43 L169.78 162.34 L170.45 171.33 L164.81 171.33 L165.48 162.34 L162.07 161.43 L158.16 169.55 L153.27 166.73 L158.34 159.28 L155.85 156.79 L148.40 161.86 L145.58 156.97 L153.70 153.06 L152.79 149.65 L143.80 150.32 L143.80 144.68 L152.79 145.35 L153.70 141.94 L145.58 138.03 L148.40 133.14 L155.85 138.21 L158.34 135.72 L153.27 128.27 L158.16 125.45 L162.07 133.57 L165.48 132.66 L164.81 123.67 L170.45 123.67 L169.78 132.66 L173.19 133.57 L177.11 125.45 L181.99 128.27 L176.92 135.72 L179.41 138.21 L186.86 133.14 L189.68 138.03 L181.56 141.94 Z M177.63 147.50 A10 10 0 1 0 157.63 147.50 A10 10 0 1 0 177.63 147.50 Z" fill="url(#metal)" fill-rule="evenodd" stroke="#77808B" stroke-width="1.1"/><circle cx="167.6" cy="147.5" r="10" fill="#FFFFFF" stroke="#C6CDD4" stroke-width="1"/><circle cx="167.6" cy="147.5" r="4.6" fill="none" stroke="#AEB6BF" stroke-width="2.6"/><circle cx="167.6" cy="147.5" r="4.6" fill="none" stroke="#0FB8A3" stroke-width="1" opacity="0.5"/><circle cx="72.4" cy="147.5" r="22" fill="#2BE4C8" opacity="0.75" filter="url(#soft)"/><path d="M87.21 145.35 L96.20 144.68 L96.20 150.32 L87.21 149.65 L86.30 153.06 L94.42 156.97 L91.60 161.86 L84.15 156.79 L81.66 159.28 L86.73 166.73 L81.84 169.55 L77.93 161.43 L74.52 162.34 L75.19 171.33 L69.55 171.33 L70.22 162.34 L66.81 161.43 L62.89 169.55 L58.01 166.73 L63.08 159.28 L60.59 156.79 L53.14 161.86 L50.32 156.97 L58.44 153.06 L57.52 149.65 L48.53 150.32 L48.53 144.68 L57.52 145.35 L58.44 141.94 L50.32 138.03 L53.14 133.14 L60.59 138.21 L63.08 135.72 L58.01 128.27 L62.89 125.45 L66.81 133.57 L70.22 132.66 L69.55 123.67 L75.19 123.67 L74.52 132.66 L77.93 133.57 L81.84 125.45 L86.73 128.27 L81.66 135.72 L84.15 138.21 L91.60 133.14 L94.42 138.03 L86.30 141.94 Z M82.37 147.50 A10 10 0 1 0 62.37 147.50 A10 10 0 1 0 82.37 147.50 Z" fill="url(#metal)" fill-rule="evenodd" stroke="#77808B" stroke-width="1.1"/><circle cx="72.4" cy="147.5" r="10" fill="#FFFFFF" stroke="#C6CDD4" stroke-width="1"/><circle cx="72.4" cy="147.5" r="4.6" fill="none" stroke="#AEB6BF" stroke-width="2.6"/><circle cx="72.4" cy="147.5" r="4.6" fill="none" stroke="#0FB8A3" stroke-width="1" opacity="0.5"/><circle cx="120" cy="120" r="38" fill="#2BE4C8" opacity="0.8" filter="url(#soft)"/><path d="M146.84 117.09 L157.85 116.65 L157.85 123.35 L146.84 122.91 L145.91 127.58 L156.25 131.39 L153.69 137.58 L143.69 132.96 L141.04 136.92 L149.14 144.39 L144.39 149.14 L136.92 141.04 L132.96 143.69 L137.58 153.69 L131.39 156.25 L127.58 145.91 L122.91 146.84 L123.35 157.85 L116.65 157.85 L117.09 146.84 L112.42 145.91 L108.61 156.25 L102.42 153.69 L107.04 143.69 L103.08 141.04 L95.61 149.14 L90.86 144.39 L98.96 136.92 L96.31 132.96 L86.31 137.58 L83.75 131.39 L94.09 127.58 L93.16 122.91 L82.15 123.35 L82.15 116.65 L93.16 117.09 L94.09 112.42 L83.75 108.61 L86.31 102.42 L96.31 107.04 L98.96 103.08 L90.86 95.61 L95.61 90.86 L103.08 98.96 L107.04 96.31 L102.42 86.31 L108.61 83.75 L112.42 94.09 L117.09 93.16 L116.65 82.15 L123.35 82.15 L122.91 93.16 L127.58 94.09 L131.39 83.75 L137.58 86.31 L132.96 96.31 L136.92 98.96 L144.39 90.86 L149.14 95.61 L141.04 103.08 L143.69 107.04 L153.69 102.42 L156.25 108.61 L145.91 112.42 Z M144.00 120.00 A24 24 0 1 0 96.00 120.00 A24 24 0 1 0 144.00 120.00 Z" fill="url(#metal2)" fill-rule="evenodd" stroke="#77808B" stroke-width="1.3"/><circle cx="120" cy="120" r="24" fill="#FFFFFF"/><circle cx="120" cy="120" r="22.4" fill="none" stroke="url(#tealg)" stroke-width="4.4" filter="url(#glow)"/><g stroke="#0EB89E" stroke-width="10" stroke-linecap="butt" fill="none"><line x1="108.5" y1="137" x2="108.5" y2="103"/><line x1="108.5" y1="103" x2="131.5" y2="137"/><line x1="131.5" y1="137" x2="131.5" y2="103"/></g></svg>