<svg viewBox="0 0 200 200" xmlns="http://www.w3.org/2000/svg" class="nx-logo" role="img" aria-label="Nexus Institute of Technology planetary-gear logo">
  <path d="M194.00 100.00 A94.00 94.00 0 1 1 6.00 100.00 A94.00 94.00 0 1 1 194.00 100.00 Z M183.76 93.63 L170.89 96.10 L170.89 103.90 L183.76 106.37 L182.55 115.52 L169.49 114.58 L167.47 122.12 L179.26 127.83 L175.72 136.36 L163.35 132.07 L159.44 138.83 L169.35 147.40 L163.73 154.72 L152.89 147.37 L147.37 152.89 L154.72 163.73 L147.40 169.35 L138.83 159.44 L132.07 163.35 L136.36 175.72 L127.83 179.26 L122.12 167.47 L114.58 169.49 L115.52 182.55 L106.37 183.76 L103.90 170.89 L96.10 170.89 L93.63 183.76 L84.48 182.55 L85.42 169.49 L77.88 167.47 L72.17 179.26 L63.64 175.72 L67.93 163.35 L61.17 159.44 L52.60 169.35 L45.28 163.73 L52.63 152.89 L47.11 147.37 L36.27 154.72 L30.65 147.40 L40.56 138.83 L36.65 132.07 L24.28 136.36 L20.74 127.83 L32.53 122.12 L30.51 114.58 L17.45 115.52 L16.24 106.37 L29.11 103.90 L29.11 96.10 L16.24 93.63 L17.45 84.48 L30.51 85.42 L32.53 77.88 L20.74 72.17 L24.28 63.64 L36.65 67.93 L40.56 61.17 L30.65 52.60 L36.27 45.28 L47.11 52.63 L52.63 47.11 L45.28 36.27 L52.60 30.65 L61.17 40.56 L67.93 36.65 L63.64 24.28 L72.17 20.74 L77.88 32.53 L85.42 30.51 L84.48 17.45 L93.63 16.24 L96.10 29.11 L103.90 29.11 L106.37 16.24 L115.52 17.45 L114.58 30.51 L122.12 32.53 L127.83 20.74 L136.36 24.28 L132.07 36.65 L138.83 40.56 L147.40 30.65 L154.72 36.27 L147.37 47.11 L152.89 52.63 L163.73 45.28 L169.35 52.60 L159.44 61.17 L163.35 67.93 L175.72 63.64 L179.26 72.17 L167.47 77.88 L169.49 85.42 L182.55 84.48 Z" fill="#0E1626" fill-rule="evenodd"/>
  <circle cx="100" cy="100" r="70" fill="none" stroke="#14CFA0" stroke-width="1.4" stroke-dasharray="2 5" opacity="0.55"/>
  <path d="M110.78 47.79 L119.79 47.08 L119.79 52.92 L110.78 52.21 L109.68 55.23 L117.03 60.48 L113.28 64.96 L106.83 58.62 L104.05 60.23 L106.31 68.98 L100.56 69.99 L99.69 61.00 L96.53 60.44 L92.64 68.60 L87.58 65.67 L92.70 58.23 L90.63 55.76 L82.41 59.51 L80.41 54.02 L89.12 51.61 L89.12 48.39 L80.41 45.98 L82.41 40.49 L90.63 44.24 L92.70 41.77 L87.58 34.33 L92.64 31.40 L96.53 39.56 L99.69 39.00 L100.56 30.01 L106.31 31.02 L104.05 39.77 L106.83 41.38 L113.28 35.04 L117.03 39.52 L109.68 44.77 Z" fill="#0E1626"/><circle cx="100.0" cy="50.0" r="6.5" fill="#FBFBF9"/><circle cx="100.0" cy="50.0" r="2.4" fill="#07785C"/><path d="M154.08 122.79 L163.09 122.08 L163.09 127.92 L154.08 127.21 L152.98 130.23 L160.34 135.48 L156.58 139.96 L150.13 133.62 L147.35 135.23 L149.61 143.98 L143.86 144.99 L142.99 136.00 L139.83 135.44 L135.94 143.60 L130.88 140.67 L136.00 133.23 L133.93 130.76 L125.71 134.51 L123.71 129.02 L132.42 126.61 L132.42 123.39 L123.71 120.98 L125.71 115.49 L133.93 119.24 L136.00 116.77 L130.88 109.33 L135.94 106.40 L139.83 114.56 L142.99 114.00 L143.86 105.01 L149.61 106.02 L147.35 114.77 L150.13 116.38 L156.58 110.04 L160.34 114.52 L152.98 119.77 Z" fill="#0E1626"/><circle cx="143.3" cy="125.0" r="6.5" fill="#FBFBF9"/><circle cx="143.3" cy="125.0" r="2.4" fill="#07785C"/><path d="M67.47 122.79 L76.48 122.08 L76.48 127.92 L67.47 127.21 L66.37 130.23 L73.73 135.48 L69.98 139.96 L63.53 133.62 L60.75 135.23 L63.01 143.98 L57.26 144.99 L56.39 136.00 L53.23 135.44 L49.34 143.60 L44.28 140.67 L49.40 133.23 L47.33 130.76 L39.11 134.51 L37.11 129.02 L45.82 126.61 L45.82 123.39 L37.11 120.98 L39.11 115.49 L47.33 119.24 L49.40 116.77 L44.28 109.33 L49.34 106.40 L53.23 114.56 L56.39 114.00 L57.26 105.01 L63.01 106.02 L60.75 114.77 L63.53 116.38 L69.98 110.04 L73.73 114.52 L66.37 119.77 Z" fill="#0E1626"/><circle cx="56.7" cy="125.0" r="6.5" fill="#FBFBF9"/><circle cx="56.7" cy="125.0" r="2.4" fill="#07785C"/>
  <path d="M116.72 96.92 L127.76 96.32 L127.76 103.68 L116.72 103.08 L115.34 107.33 L124.62 113.33 L120.29 119.30 L111.71 112.32 L108.10 114.95 L112.08 125.26 L105.07 127.54 L102.24 116.85 L97.76 116.85 L94.93 127.54 L87.92 125.26 L91.90 114.95 L88.29 112.32 L79.71 119.30 L75.38 113.33 L84.66 107.33 L83.28 103.08 L72.24 103.68 L72.24 96.32 L83.28 96.92 L84.66 92.67 L75.38 86.67 L79.71 80.70 L88.29 87.68 L91.90 85.05 L87.92 74.74 L94.93 72.46 L97.76 83.15 L102.24 83.15 L105.07 72.46 L112.08 74.74 L108.10 85.05 L111.71 87.68 L120.29 80.70 L124.62 86.67 L115.34 92.67 Z" fill="#0E1626"/>
  <circle cx="100" cy="100" r="17" fill="#FBFBF9"/>
  <circle cx="100" cy="100" r="17" fill="none" stroke="#14CFA0" stroke-width="2"/>
  <g stroke="#14CFA0" stroke-width="5.4" stroke-linecap="square" fill="none"><line x1="93" y1="110" x2="93" y2="90"/><line x1="93" y1="90" x2="107" y2="110"/><line x1="107" y1="110" x2="107" y2="90"/></g>
</svg>