<svg xmlns="http://www.w3.org/2000/svg" viewBox="0 0 343 110" role="img" aria-label="MechEd">
<g transform="translate(4.00 88.00) scale(0.09600)"><path d="M30.0772705078125 0.0V-33.77252197265625L126.9549560546875 -46.27252197265625H149.11911010742188L239.96890258789062 -33.77252197265625V0.0ZM37.5107421875 -628.9270629882812V-662.6995849609375H156.66094970703125L157.0665283203125 -614.6159057617188H148.25537109375ZM115.143798828125 0.0V-654.8605346679688H155.21353149414062L159.30795288085938 -343.81549072265625V0.0ZM362.63739013671875 0.0 137.78005981445312 -607.0182800292969H126.49679565429688V-662.6995849609375H245.31002807617188L440.9860534667969 -130.90011596679688H416.21673583984375L421.6083679199219 -146.38616943359375L607.29833984375 -662.6995849609375H645.165283203125V-616.1963806152344H635.9346008300781L627.5290222167969 -593.3573303222656L415.67169189453125 0.0ZM539.7736511230469 0.0V-33.77252197265625L651.6266479492188 -48.08367919921875H696.2832641601562L817.5418395996094 -33.77252197265625V0.0ZM610.8927612304688 0.0Q612.8927612304688 -45.5 613.6427612304688 -97.44581604003906Q614.3927612304688 -149.39163208007812 614.7441558837891 -202.76931762695312Q615.0955505371094 -256.1470031738281 615.0955505371094 -305.1995849609375L616.1094970703125 -662.6995849609375H741.4645690917969Q739.9645690917969 -617.6995849609375 738.9645690917969 -565.7537689208984Q737.9645690917969 -513.8079528808594 737.8631744384766 -460.06492614746094Q737.7617797851562 -406.3218994140625 737.7617797851562 -354.22747802734375V-311.377685546875Q737.7617797851562 -259.5804748535156 737.8631744384766 -204.78326416015625Q737.9645690917969 -149.98605346679688 738.9645690917969 -97.79023742675781Q739.9645690917969 -45.59442138671875 741.4645690917969 0.0ZM662.6019592285156 -614.6159057617188V-662.6995849609375H816.5278930664062V-628.9270629882812L696.2832641601562 -614.6159057617188Z M1096.24462890625 13.919525146484375Q1030.3111572265625 13.919525146484375 978.377685546875 -14.330474853515625Q926.4442138671875 -42.580474853515625 896.8691101074219 -96.39163208007812Q867.2940063476562 -150.20278930664062 867.2940063476562 -226.83905029296875Q867.2940063476562 -306.6920471191406 898.1121368408203 -363.49623107910156Q928.9302673339844 -420.3004150390625 980.3637390136719 -450.8878631591797Q1031.7972106933594 -481.4753112792969 1092.8390502929688 -481.4753112792969Q1149.6394653320312 -481.4753112792969 1192.228515625 -457.5960235595703Q1234.8175659179688 -433.71673583984375 1258.5203552246094 -391.4860534667969Q1282.22314453125 -349.25537109375 1282.22314453125 -292.75537109375Q1282.22314453125 -276.66094970703125 1280.8787231445312 -264.78326416015625Q1279.5343017578125 -252.90557861328125 1276.5343017578125 -241.58047485351562H915.611572265625V-277.4334716796875H1111.8680725097656Q1149.2071228027344 -277.4334716796875 1162.1266479492188 -291.5418395996094Q1175.0461730957031 -305.65020751953125 1175.0461730957031 -336.856201171875Q1175.0461730957031 -373.356201171875 1164.8782501220703 -397.1255187988281Q1154.7103271484375 -420.89483642578125 1136.3272705078125 -432.7655487060547Q1117.9442138671875 -444.6362609863281 1093.4474182128906 -444.6362609863281Q1066.9366760253906 -444.6362609863281 1042.8384857177734 -425.7043914794922Q1018.7402954101562 -406.77252197265625 1003.8100280761719 -363.4892578125Q988.8797607421875 -320.20599365234375 988.8797607421875 -246.00320434570312Q988.8797607421875 -185.111572265625 1008.1699981689453 -143.3352813720703Q1027.4602355957031 -101.55899047851562 1061.3309478759766 -80.228515625Q1095.20166015625 -58.898040771484375 1138.334716796875 -58.898040771484375Q1178.8594055175781 -58.898040771484375 1209.2564086914062 -73.96456909179688Q1239.6534118652344 -89.03109741210938 1263.611572265625 -116.96136474609375L1285.1673583984375 -100.20278930664062Q1265.856201171875 -62.28326416015625 1238.5852813720703 -36.97908020019531Q1211.3143615722656 -11.674896240234375 1176.2392578125 1.122314453125Q1141.1641540527344 13.919525146484375 1096.24462890625 13.919525146484375Z M1585.8529968261719 13.919525146484375Q1518.0278930664062 13.919525146484375 1466.7430267333984 -14.634658813476562Q1415.4581604003906 -43.1888427734375 1386.9302673339844 -97.5Q1358.4023742675781 -151.8111572265625 1358.4023742675781 -228.4334716796875Q1358.4023742675781 -310.15020751953125 1390.6051635742188 -366.5085754394531Q1422.8079528808594 -422.866943359375 1476.9983978271484 -452.17112731933594Q1531.1888427734375 -481.4753112792969 1597.0032043457031 -481.4753112792969Q1644.3701477050781 -481.4753112792969 1680.9522247314453 -464.3529968261719Q1717.5343017578125 -447.2306823730469 1739.9870910644531 -418.05418395996094Q1762.4398803710938 -388.877685546875 1766.4119873046875 -352.9581604003906Q1761.2757263183594 -330.9023742675781 1748.2408599853516 -320.13145446777344Q1735.2059936523438 -309.36053466796875 1713.1502075195312 -309.36053466796875Q1689.2027893066406 -309.36053466796875 1672.383056640625 -325.66632080078125Q1655.5633239746094 -341.97210693359375 1651.5772705078125 -379.100830078125L1637.7832641601562 -456.111572265625L1690.4119873046875 -421.77252197265625Q1669.9119873046875 -435.1362609863281 1649.2370910644531 -439.8862609863281Q1628.5621948242188 -444.6362609863281 1608.3315124511719 -444.6362609863281Q1573.0653991699219 -444.6362609863281 1543.8170013427734 -422.48228454589844Q1514.568603515625 -400.32830810546875 1497.4269714355469 -356.6534118652344Q1480.2853393554688 -312.978515625 1480.2853393554688 -248.01715087890625Q1480.2853393554688 -188.21994018554688 1498.4199981689453 -145.74085998535156Q1516.5546569824219 -103.26177978515625 1549.3711853027344 -81.07991027832031Q1582.1877136230469 -58.898040771484375 1626.6319274902344 -58.898040771484375Q1651.090087890625 -58.898040771484375 1672.3052215576172 -65.08688354492188Q1693.5203552246094 -71.27572631835938 1712.4382781982422 -84.2950439453125Q1731.356201171875 -97.31436157226562 1747.9227294921875 -117.25857543945312L1769.7757263183594 -100.20278930664062Q1751.1673583984375 -62.1888427734375 1724.6464385986328 -36.88465881347656Q1698.1255187988281 -11.580474853515625 1663.8004150390625 1.169525146484375Q1629.4753112792969 13.919525146484375 1585.8529968261719 13.919525146484375Z M1810.8497924804688 0.0V-30.664154052734375L1905.4410095214844 -47.475311279296875H1957.2649841308594L2049.2896728515625 -30.664154052734375V0.0ZM1871.0880126953125 0.0Q1872.7908020019531 -23.8111572265625 1873.3921966552734 -61.05418395996094Q1873.9935913085938 -98.29721069335938 1874.4935913085938 -138.2902374267578Q1874.9935913085938 -178.28326416015625 1874.9935913085938 -210.1888427734375V-649.2103271484375L1805.9442138671875 -662.5075378417969V-690.5493774414062L1980.1179809570312 -734.2940063476562L1993.3486633300781 -724.8744812011719L1989.3486633300781 -553.5493774414062V-372.5418395996094L1990.8486633300781 -365.33905029296875V-210.1888427734375Q1990.8486633300781 -178.28326416015625 1991.3486633300781 -138.2902374267578Q1991.8486633300781 -98.29721069335938 1992.5986633300781 -61.05418395996094Q1993.3486633300781 -23.8111572265625 1994.7542419433594 0.0ZM2106.7274780273438 0.0V-30.664154052734375L2199.899169921875 -47.475311279296875H2251.22314453125L2344.5589904785156 -30.664154052734375V0.0ZM2164.654541015625 0.0Q2166.3573303222656 -23.8111572265625 2167.0601196289062 -60.80418395996094Q2167.762908935547 -97.79721069335938 2168.1615142822266 -137.7902374267578Q2168.5601196289062 -177.78326416015625 2168.5601196289062 -210.1888427734375V-308.7199401855469Q2168.5601196289062 -364.5665283203125 2153.0547485351562 -385.26771545410156Q2137.5493774414062 -405.9689025878906 2101.4581604003906 -405.9689025878906Q2080.7027893066406 -405.9689025878906 2059.2778930664062 -397.71192932128906Q2037.8529968261719 -389.4549560546875 2016.2322845458984 -373.5021667480469Q1994.611572265625 -357.54937744140625 1972.0729370117188 -334.0633239746094L1962.6287231445312 -371.21673583984375H1973.3733520507812Q1998.9151916503906 -406.3143615722656 2027.6984558105469 -430.86854553222656Q2056.481719970703 -455.4227294921875 2088.5482482910156 -468.4490203857422Q2120.614776611328 -481.4753112792969 2155.0064086914062 -481.4753112792969Q2216.4119873046875 -481.4753112792969 2250.7108001708984 -441.87391662597656Q2285.0096130371094 -402.27252197265625 2285.0096130371094 -314.7478332519531V-210.1888427734375Q2285.0096130371094 -177.78326416015625 2285.5096130371094 -137.7902374267578Q2286.0096130371094 -97.79721069335938 2286.7596130371094 -60.80418395996094Q2287.5096130371094 -23.8111572265625 2288.9151916503906 0.0Z M2401.2135314941406 0.0V-33.77252197265625L2522.769317626953 -48.08367919921875H2555.5589904785156V0.0ZM2477.385223388672 0.0Q2479.385223388672 -45.297210693359375 2480.236618041992 -97.34442138671875Q2481.0880126953125 -149.39163208007812 2481.189407348633 -204.3374481201172Q2481.290802001953 -259.28326416015625 2481.290802001953 -311.377685546875V-354.22747802734375Q2481.290802001953 -405.94388378625627 2481.189407348633 -459.8088948918485Q2481.0880126953125 -513.6739059974408 2480.3380126953125 -565.538917103033Q2479.5880126953125 -617.4039282086252 2477.5880126953125 -662.6995849609375H2608.5514526367188Q2607.0514526367188 -617.9023742675781 2606.0514526367188 -565.9565582275391Q2605.0514526367188 -514.0107421875 2604.9500579833984 -460.26771545410156Q2604.848663330078 -406.5246887207031 2604.848663330078 -354.22747802734375V-315.1470031738281Q2604.848663330078 -261.5665283203125 2604.9500579833984 -206.127685546875Q2605.0514526367188 -150.6888427734375 2606.0514526367188 -98.24302673339844Q2607.0514526367188 -45.797210693359375 2608.5514526367188 0.0ZM2543.5836791992188 0.0V-39.4334716796875H2844.129852294922L2808.4410095214844 -17.622314453125L2856.0912170410156 -181.377685546875H2901.7167358398438L2892.2167358398438 0.0ZM2543.5836791992188 -318.9302673339844V-359.5H2744.9613647460938V-318.9302673339844ZM2746.380889892578 -227.79721069335938 2722.258575439453 -331.4153946698722V-350.01305505784893L2746.380889892578 -450.72747802734375H2782.0450439453125V-227.79721069335938ZM2401.2135314941406 -628.9270629882812V-662.6995849609375H2555.5589904785156V-614.6159057617188H2522.769317626953ZM2838.0912170410156 -486.72747802734375 2790.2382202148438 -644.8744812011719 2826.129852294922 -623.0633239746094H2538.4195251464844V-662.6995849609375H2874.294731727013L2883.7167358398438 -486.72747802734375Z M3157.643798828125 13.919525146484375Q3103.252166748047 13.919525146484375 3060.6647186279297 -14.026290893554688Q3018.0772705078125 -41.97210693359375 2993.5370330810547 -95.47908020019531Q2968.996795654297 -148.98605346679688 2968.996795654297 -225.51394653320312Q2968.996795654297 -305.1362609863281 2996.7537689208984 -362.40020751953125Q3024.5107421875 -419.6641540527344 3070.9163208007812 -450.5697326660156Q3117.3218994140625 -481.4753112792969 3173.2135314941406 -481.4753112792969Q3202.3497924804688 -481.4753112792969 3227.0997924804688 -472.0085754394531Q3251.8497924804688 -462.5418395996094 3273.5316619873047 -442.4737091064453Q3295.2135314941406 -422.40557861328125 3313.888427734375 -389.2972106933594H3331.2274780273438L3321.1051635742188 -349.34979248046875Q3288.8111572265625 -386.26611328125 3263.935073852539 -401.9077453613281Q3239.0589904785156 -417.54937744140625 3207.100830078125 -417.54937744140625Q3175.6705627441406 -417.54937744140625 3149.334716796875 -397.77308654785156Q3122.9988708496094 -377.9967956542969 3107.4393157958984 -336.39002990722656Q3091.8797607421875 -294.78326416015625 3091.8797607421875 -229.52789306640625Q3091.8797607421875 -167.58367919921875 3106.4393157958984 -127.87551879882812Q3120.9988708496094 -88.1673583984375 3147.1319274902344 -69.24246215820312Q3173.2649841308594 -50.31756591796875 3206.586883544922 -50.31756591796875Q3241.219940185547 -50.31756591796875 3268.116943359375 -71.65501403808594Q3295.013946533203 -92.99246215820312 3320.133056640625 -129.20599365234375L3328.647003173828 -86.94741821289062H3312.496795654297Q3294.9828491210938 -55.40557861328125 3272.0230865478516 -32.74302673339844Q3249.0633239746094 -10.080474853515625 3220.806350708008 1.919525146484375Q3192.5493774414062 13.919525146484375 3157.643798828125 13.919525146484375ZM3299.1159057617188 11.21673583984375 3293.3047485351562 -81.5107421875V-84.8218994140625V-388.5032043457031L3296.021484375 -399.20599365234375V-649.2103271484375L3224.9442138671875 -662.5075378417969V-690.5493774414062L3399.9291381835938 -734.2940063476562L3413.1598205566406 -724.8744812011719L3409.1598205566406 -553.5493774414062V-40.352996826171875L3469.964569091797 -30.664154052734375V0.0Z" fill="#14294B"/></g>
</svg>
